<svg data-test-id="available-on-device-ribbon-available-on-device-ribbon-supported-devices-icons-dark-androidTV-AndroidTV" width="96px" height="36px" viewBox="0 0 101 16" version="1.1" xmlns="http://www.w3.org/2000/svg"><title>AndroidTV icon</title><desc>android tv icon</desc><defs></defs><g stroke="none" stroke-width="1" fill="none" fill-rule="evenodd"><g transform="translate(-207.000000, -333.000000)" fill="#333333"><g transform="translate(191.000000, 309.000000)" fill="#333333"><g transform="translate(16.000000, 24.000000)" fill="#333333"><path d="M82.9672998,5.42481105 L87.331076,5.42481105 L87.331076,4.42799254 L82.9672998,4.42799254 L82.9672998,1.30452416 L81.8761429,1.30452416 L81.8761429,12.1909646 C81.8701826,12.2831402 81.8761429,12.7090147 81.8761429,12.7090147 L81.9110531,13.0637155 C82.2295023,15.2518159 84.2674922,16.9420902 86.7456913,16.9572583 L86.7456913,16.9588141 L87.331076,16.9588141 L87.331076,15.9623845 L86.8644712,15.9623845 C86.8644712,15.9623845 86.6303174,15.9479942 86.5996645,15.9464385 C85.983627,15.9203804 85.4054799,15.7605317 84.8997076,15.4980063 C83.7459677,14.8998374 82.9672998,13.7668946 82.9672998,12.4678803 C82.9672998,12.4558236 82.9690027,12.4441557 82.9694284,12.432099 L82.9672998,12.4317101 L82.9672998,9.63377317 L82.9672998,5.42481105 Z M89.6061998,4.41593582 L95.938997,16.9347006 L89.6061998,4.41593582 Z M95.3932057,16.9588141 L94.8214445,16.9588141 L88.5550619,4.42799254 L89.6457931,4.42799254 L95.107538,15.3494364 L100.568857,4.42799254 L101.659588,4.42799254 L95.3932057,16.9588141 Z" fill-rule="nonzero"></path><g fill-rule="nonzero"><path d="M9.67010271,10.6840182 L9.67010271,8.97429292 C9.67713589,8.86250318 9.63775005,8.75279004 9.56108832,8.66972646 C8.98225715,7.95537968 8.15796781,7.47430311 7.24365367,7.31648232 C5.85811612,7.1226673 4.68709071,7.46876554 3.83255866,8.6212727 C3.2277047,9.4702517 3.01565416,10.5310429 3.24880426,11.5423419 C3.53505491,13.0423317 4.84252411,14.1450008 6.39263822,14.1934545 C7.97862157,14.1934545 9.25514475,12.9855716 9.55757174,12.6706222 C9.63282682,12.5979415 9.67361929,12.4975731 9.67010271,12.3937436 L9.67010271,10.6840182 Z M9.62790359,5.53753733 C9.66834441,5.46831768 9.6831141,5.38767678 9.67010271,5.30911248 L9.67010271,4.71728449 C9.67010271,4.54423536 9.71581841,4.49924259 9.89164805,4.49924259 L12.5712918,4.49924259 C12.733055,4.49924259 12.7682209,4.54769635 12.7682209,4.69651859 L12.7682209,16.5053907 C12.7682209,16.657674 12.7295385,16.7061277 12.5677751,16.7026667 L9.87054849,16.7026667 C9.69120226,16.7061277 9.67010271,16.650752 9.67010271,16.4846249 L9.67010271,15.7024429 C9.60328744,15.667833 9.5751547,15.7197477 9.54350536,15.7474356 C8.48430761,16.6348315 7.09982503,17.0518798 5.7174524,16.8999427 C4.15010699,16.8019969 2.68298447,16.1066855 1.62765498,14.9617926 C0.839586531,14.139117 0.321240752,13.1018606 0.140136224,11.9853477 C-0.136267971,10.6321035 -0.00193412604,9.22832903 0.52696143,7.94984211 C1.30131516,6.04941663 3.04132528,4.69548029 5.09853207,4.39195214 C6.19113745,4.18014001 7.32348033,4.29192974 8.35138041,4.71382351 C8.73257906,4.88168115 9.08775493,5.10214573 9.40635824,5.36794919 L9.62790359,5.53753733 Z"></path><path d="M76.7139444,10.6701744 L76.7139444,8.98121488 C76.7188677,8.85281243 76.6706903,8.72787097 76.5803138,8.63511664 C75.9965594,7.93426768 75.17438,7.46565066 74.2663958,7.31648232 C73.3454001,7.1417027 72.3913486,7.34417017 71.6254347,7.87716148 C70.1618287,9.00198078 69.7735969,11.021118 70.7181537,12.5944805 C71.2702587,13.5670166 72.3048404,14.1782262 73.4364799,14.2003765 C74.5864058,14.2003765 76.0000761,13.3835846 76.6436125,12.6429343 C76.6977681,12.5768296 76.7230875,12.4920355 76.7139444,12.4075875 L76.7139444,10.6736353 L76.7139444,10.6701744 Z M76.7139444,15.671294 C76.2740186,16.058924 75.7697392,16.3693742 75.222909,16.5884543 C73.8588227,17.0937577 72.3502043,17.0702231 71.0029977,16.5226956 C68.8557662,15.759549 67.3489061,13.8452797 67.1347456,11.6081005 C66.9015955,10.1994807 67.1343939,8.75452053 67.7993816,7.48607046 C68.7034977,5.72096941 70.4603875,4.53177582 72.4588671,4.33311544 C73.479734,4.18360099 74.5227555,4.31892541 75.4690705,4.72420645 C75.8351479,4.89517899 76.1769607,5.11287479 76.4853658,5.37141017 L76.7104278,5.5444593 L76.7104278,5.31603445 L76.7104278,1.08671388 C76.7104278,0.934430655 76.7455937,0.8859769 76.907357,0.889437883 L79.6256832,0.889437883 C79.7051582,0.864518809 79.7902597,0.90778109 79.8155793,0.986345392 C79.8250741,1.01541764 79.8250741,1.04691258 79.8155793,1.07633094 L79.8155793,16.5019297 C79.8408987,16.5922614 79.7867432,16.6857079 79.6949602,16.7102809 C79.6643658,16.7185873 79.6316615,16.7182412 79.6010671,16.7095887 L76.9038404,16.7095887 C76.7561435,16.7095887 76.7033946,16.6715179 76.7104278,16.5226956 C76.7209776,16.249278 76.7139444,15.9827824 76.7139444,15.671294 Z"></path><path d="M37.3070056,10.6840182 L37.3070056,8.97429292 C37.3140386,8.86250318 37.2746528,8.75279004 37.1979911,8.66972646 C36.6191599,7.95537968 35.7948706,7.47430311 34.8805565,7.31648232 C33.4950189,7.1226673 32.3239935,7.46876554 31.4694614,8.6212727 C30.8646074,9.4702517 30.652557,10.5310429 30.885707,11.5423419 C31.1719577,13.0423317 32.4794269,14.1450008 34.029541,14.1934545 C35.6155244,14.1934545 36.8920476,12.9855716 37.1944745,12.6706222 C37.2707846,12.5972494 37.3115771,12.4951504 37.3070056,12.3902826 C37.3034889,11.8226815 37.3070056,11.2550804 37.3070056,10.6840182 Z M37.2718396,5.53753733 C37.3087638,5.46727938 37.3196652,5.3866385 37.3034889,5.30911248 L37.3034889,1.10055781 C37.3034889,0.92750869 37.3492046,0.882515918 37.5250343,0.882515918 L40.2046779,0.882515918 C40.3664413,0.882515918 40.4016071,0.930969672 40.4016071,1.07979192 L40.4016071,16.5053907 C40.4016071,16.657674 40.3629246,16.7061277 40.2011614,16.7026667 L37.5039347,16.7026667 C37.3386548,16.7026667 37.2999724,16.647291 37.3070056,16.4984688 L37.3070056,15.7162867 C37.2401902,15.6816769 37.2120575,15.7335916 37.1804082,15.7612795 C36.1212104,16.6486755 34.7367279,17.0657238 33.3543552,16.9137867 C31.7870098,16.8158409 30.3198872,16.1205295 29.2645578,14.9756365 C28.4750827,14.1488078 27.9581435,13.1063599 27.7805556,11.9853477 C27.5052064,10.6317575 27.6409469,9.22798293 28.1708974,7.94984211 C28.9452511,6.04941663 30.6852613,4.69548029 32.7424681,4.39195214 C33.8350735,4.18014001 34.9674163,4.29192974 35.9953164,4.71382351 C36.3765151,4.88168115 36.7316909,5.10214573 37.0502942,5.36794919 L37.2718396,5.53753733 Z"></path><path d="M51.3909597,10.6009547 C51.3860364,10.817266 51.3990478,11.0339236 51.4296422,11.2481584 C51.5731192,12.4456584 52.3889687,13.4614567 53.5395979,13.8750441 C55.0225451,14.4720636 56.7256309,13.9020397 57.5309307,12.5391048 C57.9606583,11.8316801 58.1400045,11.0041592 58.0408367,10.1856368 C57.9047445,8.37485076 56.3025848,7.01537685 54.4623518,7.14931686 C54.121594,7.17423593 53.7868143,7.25037755 53.469266,7.37531902 C52.1621484,7.92007765 51.3343425,9.20479435 51.3909597,10.6009547 M61.2057701,10.6009547 C61.276102,14.2661351 58.1463344,16.9691624 54.7317228,16.9587794 C51.1834807,16.9587794 48.3069077,14.1276958 48.3069077,10.6355645 C48.3069077,7.14343319 51.1834807,4.31234954 54.7317228,4.31234954 C58.5085434,4.29850561 61.3077513,7.3580141 61.2057701,10.6009547"></path><path d="M14.6214654,12.9509618 L14.6214654,10.1164171 C14.6000142,7.36182119 16.558053,4.97547378 19.2985338,4.41617901 C21.3451908,4.01816603 23.0929374,4.64114288 24.5382571,6.07398962 C25.6160927,7.11055386 26.2107485,8.53993961 26.1805059,10.0229706 L26.1805059,16.4777029 C26.1805059,16.657674 26.1347902,16.7095887 25.9484108,16.7061277 L23.3109661,16.7061277 C23.1175536,16.7061277 23.0859042,16.64383 23.0859042,16.4742419 C23.0859042,14.2765181 23.0648046,12.0787942 23.0859042,9.89837524 C23.1024322,8.47245046 21.941605,7.30333059 20.4927687,7.28706396 C20.3580832,7.28533347 20.2233976,7.29433203 20.0897672,7.31302133 C19.0544822,7.3784339 18.1612677,8.05228719 17.828598,9.01928569 C17.7417382,9.27436009 17.7012973,9.54293233 17.7090338,9.81185067 L17.7090338,16.4811639 C17.7090338,16.6645959 17.6738679,16.7268936 17.4734221,16.7234326 L14.814878,16.7234326 C14.7230949,16.7483517 14.6281468,16.6950526 14.603179,16.6047209 C14.5947392,16.5746104 14.5950909,16.5424233 14.6038824,16.5123127 C14.6249819,15.3148128 14.6214654,14.1311568 14.6214654,12.9509618"></path><path d="M41.8785761,12.9682667 C41.8785761,11.8607522 41.8609932,10.7532379 41.8785761,9.64572351 C41.8764662,8.4634519 42.2530933,7.31059864 42.9546535,6.35086821 C43.7494036,5.31326567 44.9165607,4.61380111 46.2180517,4.39541312 C46.727606,4.29469853 47.2456001,4.2403611 47.7653525,4.23274694 C47.8321677,4.21232714 47.9028513,4.24935966 47.9235991,4.31511833 C47.930984,4.3389991 47.930984,4.36461037 47.9235991,4.38849115 L47.9235991,7.1226673 C47.9235991,7.25072365 47.8743668,7.27148954 47.7618359,7.27495053 C47.4418259,7.2811803 47.1235743,7.32201989 46.8123558,7.39608491 C45.6736831,7.6151651 44.8789331,8.63477054 44.9591114,9.77377987 L44.9591114,15.1036929 L44.9591114,16.5192347 C44.9591114,16.6680569 44.9169123,16.7061277 44.7692154,16.7026667 L42.0895717,16.7026667 C41.9172587,16.7026667 41.8645097,16.6680569 41.8645097,16.4880859 L41.8645097,12.9682667 L41.8785761,12.9682667 Z"></path><path d="M65.6648098,10.6182595 L65.6648098,16.4777029 C65.6648098,16.6645959 65.6085443,16.7026667 65.4291981,16.7026667 L62.7706539,16.7026667 C62.6194404,16.7026667 62.5666916,16.6680569 62.5666916,16.5088517 L62.5666916,4.74151136 C62.5666916,4.57884519 62.6229571,4.54769635 62.7706539,4.54769635 L65.4291981,4.54769635 C65.6085443,4.54769635 65.6648098,4.58922814 65.6612932,4.77266021 C65.6612932,6.71427137 65.6648098,8.66626547 65.6648098,10.6182595"></path><path d="M62.3873453,1.91388869 C62.3873453,0.979423427 63.0730809,0.0761070043 64.0506938,0.0968728992 C65.1056716,0.121099777 65.9074547,0.768303497 65.9109713,1.81005922 C65.940159,2.76771306 65.1749485,3.56720002 64.2019073,3.59592616 C63.228866,3.62465232 62.4165331,2.87154254 62.3873453,1.91388869"></path></g></g></g></g></g></svg>