<svg data-test-id="available-on-device-ribbon-available-on-device-ribbon-supported-devices-icons-dark-appleTV-AppleTV" width="96px" height="36px" viewBox="0 0 96 36" version="1.1" xmlns="http://www.w3.org/2000/svg"><title>AppleTV icon</title><desc>Created with Sketch.</desc><g id="💻-Supported-Devices" stroke="none" stroke-width="1" fill="none" fill-rule="evenodd"><g id="Supported-Devices/Apple-TV" fill="#333333" fill-rule="nonzero"><g id="Apple-TV"><path d="M36.8222283,9.17133603 C37.7864466,8.00587285 38.2642614,6.51113492 38.1556568,5 C36.6778739,5.14320459 35.3137206,5.8585451 34.3523551,6.99439151 C33.3854617,8.09324608 32.8946723,9.53368286 32.9886214,10.996866 C34.4810652,11.0262332 35.9006184,10.3502544 36.8222283,9.17133603 M38.0647413,11.2722168 C35.9433777,11.1489935 34.1553714,12.4892368 33.1401474,12.4892368 C32.1249234,12.4892368 30.5793586,11.3391529 28.912573,11.3695784 C26.6915593,11.4324132 24.6714678,12.6765145 23.6091642,14.6357558 C21.3362747,18.5910708 23.0030603,24.4829688 25.2153394,27.703508 C26.2911738,29.2339106 27.5791445,31.0579193 29.2913879,30.9985896 C31.0036313,30.9392599 31.5339722,29.9336971 33.4886571,29.9336971 C35.4433421,29.9336971 36.0191407,30.9985896 37.7162315,30.9605577 C39.4133223,30.9225259 40.5952249,29.4271125 41.6559066,27.7658802 C42.4209988,26.6312038 43.0181633,25.3911396 43.4287604,24.0843948 C41.3474092,23.1593085 40.0007721,21.093812 39.989121,18.8086131 C40.0146276,16.7916237 41.0591353,14.9258214 42.7620462,13.8553417 C41.6827559,12.3060355 39.9461771,11.3499375 38.0647413,11.2691742 M51.59601,8.20228386 L51.59601,12.545524 L55.050802,12.545524 L55.050802,15.4131273 L51.59601,15.4131273 L51.59601,25.6893399 C51.59601,27.2227851 52.2778768,28.0047204 53.7931364,28.0047204 C54.2086607,27.997182 54.6234578,27.9667105 55.0356494,27.9134439 L55.0356494,30.8038664 C54.3594416,30.9138212 53.675013,30.9647209 52.9900488,30.9559939 C49.4140361,30.9559939 48.0351498,29.5609847 48.0351498,26.0635735 L48.0351498,15.4815847 L45.322835,15.4815847 L45.322835,12.606375 L47.9593868,12.606375 L47.9593868,8.20532641 L51.59601,8.20228386 Z M67.1274214,30.7977813 L63.3392723,30.7977813 L56.9751817,12.606375 L60.7481782,12.606375 L65.2181942,27.2227851 L65.3091098,27.2227851 L69.7791258,12.606375 L73.4763593,12.606375 L67.1274214,30.7977813 Z" id="Shape"></path></g></g></g></svg>