<svg data-test-id="available-on-device-ribbon-available-on-device-ribbon-supported-devices-icons-dark-fireTV-FireTV" width="96px" height="36px" viewBox="-15 0 96 36" version="1.1" xmlns="http://www.w3.org/2000/svg"><title>FireTV icon</title><desc>fire tv icon</desc><defs></defs><g stroke="none" stroke-width="1" fill="none" fill-rule="evenodd"><g transform="translate(-77.000000, -323.000000)" fill="#333333"><g transform="translate(60.000000, 309.000000)"><g transform="translate(17.000000, 14.000000)"><path d="M3.05028986,20.5517754 C2.69326087,20.5517754 2.5152174,20.3737319 2.5152174,20.0167029 L2.5152174,9.0736232 L0.535543478,9.0736232 C0.178043478,9.0736232 0,8.8955797 0,8.53855074 L0,7.86923913 C0,7.69119566 0.0405072464,7.55742754 0.12057971,7.46840579 C0.200652174,7.37891304 0.357028986,7.31673913 0.588768115,7.28094202 L2.5152174,7.0397826 L2.5152174,4.8457971 C2.5152174,1.86757246 3.9419203,0.377753623 6.79626811,0.377753623 C7.47358696,0.377753623 8.18764492,0.476195653 8.93655798,0.672137681 C9.1325,0.725833333 9.27097825,0.805905798 9.35105073,0.913297101 C9.43112319,1.01974638 9.47163044,1.20768116 9.47163044,1.47474638 L9.47163044,2.17090579 C9.47163044,2.50956522 9.33786232,2.67913044 9.07032609,2.67913044 C8.90971014,2.67913044 8.68221014,2.6522826 8.38782609,2.59858697 C8.09344202,2.54536232 7.75949276,2.51851448 7.38456522,2.51851448 C6.56358696,2.51851448 5.98894926,2.67489131 5.65876811,2.9867029 C5.32811593,3.29898552 5.16373188,3.8119203 5.16373188,4.52503623 L5.16373188,6.98655798 L8.77594202,6.98655798 C9.1325,6.98655798 9.31054347,7.16507246 9.31054347,7.52163044 L9.31054347,8.53855074 C9.31054347,8.8955797 9.1325,9.0736232 8.77594202,9.0736232 L5.16373188,9.0736232 L5.16373188,20.0167029 C5.16373188,20.3737319 4.9852174,20.5517754 4.62865942,20.5517754 L3.05028986,20.5517754 Z M12.1356884,20.5517754 C11.7791304,20.5517754 11.601087,20.3737319 11.601087,20.0167029 L11.601087,7.52163044 C11.601087,7.16507246 11.7791304,6.98655798 12.1356884,6.98655798 L13.714529,6.98655798 C14.071558,6.98655798 14.2500725,7.16507246 14.2500725,7.52163044 L14.2500725,20.0167029 C14.2500725,20.3737319 14.071558,20.5517754 13.714529,20.5517754 L12.1356884,20.5517754 Z M12.9392391,4.57873188 C12.4211232,4.57873188 12.0155797,4.43130434 11.7216667,4.1369203 C11.4272826,3.84253623 11.2798551,3.45489131 11.2798551,2.97351448 C11.2798551,2.49166667 11.4272826,2.10355072 11.7216667,1.80916667 C12.0155797,1.51478261 12.4211232,1.3682971 12.9392391,1.3682971 C13.455942,1.3682971 13.8619565,1.51478261 14.1563406,1.80916667 C14.4507246,2.10355072 14.5976811,2.49166667 14.5976811,2.97351448 C14.5976811,3.45489131 14.4507246,3.84253623 14.1563406,4.1369203 C13.8619565,4.43130434 13.455942,4.57873188 12.9392391,4.57873188 Z M18.2739493,20.5517754 C17.9164493,20.5517754 17.7384058,20.3737319 17.7384058,20.0167029 L17.7384058,7.52163044 C17.7384058,7.16507246 17.9164493,6.98655798 18.2739493,6.98655798 L19.4505435,6.98655798 C19.629058,6.98655798 19.7670652,7.02235508 19.8655072,7.09394927 C19.9634783,7.16507246 20.0298913,7.29884058 20.0656884,7.4947826 L20.2536232,8.99355074 C20.735,8.47590579 21.19,8.0661232 21.6176811,7.76278986 C22.0458333,7.45945653 22.4876448,7.23619566 22.9426448,7.09394927 C23.397174,6.95123189 23.8827899,6.87963768 24.4004347,6.87963768 C24.6147464,6.87963768 24.8285869,6.88858697 25.0428986,6.90601448 C25.3457609,6.9422826 25.4978986,7.10289855 25.4978986,7.38786232 L25.4978986,8.83293478 C25.4978986,9.15416667 25.3372825,9.3147826 25.0160508,9.3147826 C24.8549637,9.3147826 24.6990579,9.30536232 24.5478623,9.28746377 C24.3961956,9.27003623 24.2308696,9.26061593 24.052826,9.26061593 C22.6256522,9.26061593 21.4038406,9.68876812 20.3869203,10.5450725 L20.3869203,20.0167029 C20.3869203,20.3737319 20.2084058,20.5517754 19.8523188,20.5517754 L18.2739493,20.5517754 Z M32.6502536,20.9530797 C30.455797,20.9530797 28.7973552,20.3468841 27.6730435,19.1335507 C26.549674,17.9211594 25.9877536,16.1280072 25.9877536,13.7555072 C25.9877536,11.4908696 26.549674,9.72880434 27.6730435,8.47166667 C28.7973552,7.21405798 30.3663044,6.58525363 32.3822464,6.58525363 C34.0769566,6.58525363 35.3788407,7.06239131 36.2883697,8.01666667 C37.1983697,8.97094202 37.6533697,10.3222826 37.6533697,12.0702174 C37.6533697,12.641087 37.6086232,13.2209058 37.5196014,13.8096739 C37.4833333,14.0235145 37.4253986,14.1662319 37.345326,14.2378261 C37.2657246,14.3089493 37.1357246,14.3442754 36.9572101,14.3442754 L28.5561956,14.3442754 C28.5915218,15.8788406 28.9711593,17.0111594 29.6932246,17.7426449 C30.4157609,18.4741304 31.5348913,18.8391667 33.0510869,18.8391667 C33.5866304,18.8391667 34.0990943,18.8038406 34.5894202,18.7327174 C35.0802175,18.6611232 35.6996014,18.5094565 36.4494566,18.2777174 C36.5738044,18.2423913 36.6807246,18.2108333 36.7706885,18.1839855 C36.8592391,18.1571377 36.9397825,18.1439493 37.0109058,18.1439493 C37.2426448,18.1439493 37.3589855,18.3040942 37.3589855,18.6253261 L37.3589855,19.3747101 C37.3589855,19.6064493 37.3231885,19.7717754 37.2515943,19.8697464 C37.180471,19.9681884 37.0288044,20.0699275 36.7970653,20.1773188 C36.2619927,20.409058 35.6242391,20.5965217 34.8838044,20.7387681 C34.1438407,20.8814855 33.3991667,20.9530797 32.6502536,20.9530797 Z M35.2186956,12.578442 C35.2361232,12.4361957 35.2450724,12.2039855 35.2450724,11.8832246 C35.2450724,10.7951812 34.9907246,9.97467391 34.4825,9.42123189 C33.9742754,8.86873189 33.2291303,8.59177536 32.2484782,8.59177536 C31.1246377,8.59177536 30.2509057,8.92619566 29.6263407,9.59503623 C29.0017754,10.2643478 28.6456885,11.2586594 28.5561956,12.578442 L35.2186956,12.578442 Z M47.612971,20.7387681 C45.080326,20.7387681 43.8137681,19.4726811 43.8137681,16.9400362 L43.8137681,9.07362319 L41.8873189,9.07362319 C41.5302899,9.07362319 41.3527175,8.8955797 41.3527175,8.53855073 L41.3527175,7.86923913 C41.3527175,7.69119565 41.3922825,7.55742754 41.472826,7.46840579 C41.5533697,7.37891303 41.7088044,7.31673913 41.9410145,7.28094202 L43.8943115,7.0397826 L44.2423913,3.72242754 C44.2777175,3.36586956 44.4647101,3.18735508 44.8038407,3.18735508 L45.9276812,3.18735508 C46.2847101,3.18735508 46.4632246,3.36586956 46.4632246,3.72242754 L46.4632246,6.98655798 L49.9411956,6.98655798 C50.2972825,6.98655798 50.4762681,7.16507246 50.4762681,7.52163044 L50.4762681,8.53855073 C50.4762681,8.8955797 50.2972825,9.07362319 49.9411956,9.07362319 L46.4632246,9.07362319 L46.4632246,16.8062681 C46.4632246,17.4661594 46.6101812,17.9296377 46.9045653,18.1971739 C47.1984782,18.4647101 47.7019927,18.5984783 48.4160508,18.5984783 C48.7547101,18.5984783 49.1739131,18.5546739 49.6736593,18.4647101 C49.9411956,18.4114855 50.1187681,18.3846377 50.208732,18.3846377 C50.3509782,18.3846377 50.4489492,18.4246739 50.5031159,18.5047464 C50.5568115,18.5852899 50.5836593,18.7148188 50.5836593,18.8928623 L50.5836593,19.6153986 C50.5836593,19.8476087 50.5473913,20.021413 50.4762681,20.1372826 C50.4051448,20.2531522 50.2624276,20.3468841 50.0481159,20.4180072 C49.3524276,20.6323188 48.5403986,20.7387681 47.612971,20.7387681 Z M57.7911232,20.5517754 C57.5414855,20.5517754 57.358732,20.5164493 57.2428623,20.4448551 C57.1269927,20.3737319 57.0064131,20.1683696 56.8811232,19.8297101 L52.1455435,7.9497826 C52.1092754,7.84286232 52.0697101,7.73594202 52.0254347,7.62855073 C51.9806885,7.52163044 51.9585508,7.42413044 51.9585508,7.33416667 C51.9585508,7.10289855 52.0918478,6.98655798 52.3598552,6.98655798 L53.9382246,6.98655798 C54.206232,6.98655798 54.3932246,7.02235508 54.5001448,7.09394926 C54.6070653,7.16507246 54.7229347,7.37043478 54.8482246,7.70862319 L58.5136593,18.1439493 L62.1790943,7.70862319 C62.3039131,7.37043478 62.4202536,7.16507246 62.526703,7.09394926 C62.6340943,7.02235508 62.8210869,6.98655798 63.0890943,6.98655798 L64.5605435,6.98655798 C64.8276087,6.98655798 64.9618478,7.10289855 64.9618478,7.33416667 C64.9618478,7.42413044 64.9392391,7.52163044 64.8949637,7.62855073 C64.8502175,7.73594202 64.8101812,7.84286232 64.7743841,7.9497826 L60.0651812,19.8297101 C59.9403623,20.1683696 59.8197825,20.3737319 59.7043841,20.4448551 C59.5875724,20.5164493 59.4057609,20.5517754 59.1556522,20.5517754 L57.7911232,20.5517754 Z M52.6250363,29.0305074 C47.0552899,33.1405798 38.9811593,35.3260869 32.0285145,35.3260869 C22.2841667,35.3260869 13.5096377,31.7242391 6.86927536,25.7282246 C6.34786232,25.2576812 6.81275363,24.6147464 7.43967391,24.9793115 C14.6038043,29.1482609 23.4631159,31.6587681 32.6135145,31.6587681 C38.7861593,31.6587681 45.5715943,30.3776087 51.8153623,27.7290943 C52.7564492,27.3301448 53.5463407,28.3498913 52.6250363,29.0305074 Z M54.9424276,26.3848188 C54.2297825,25.4724637 50.2341667,25.9524276 48.4381885,26.1676811 C47.8946377,26.2331522 47.8098552,25.7574276 48.3001812,25.4131159 C51.4884782,23.1748552 56.712029,23.8210869 57.3191667,24.570471 C57.9310145,25.3269202 57.1585508,30.5641303 54.1709058,33.0633333 C53.7116667,33.4472101 53.2740943,33.2427899 53.4780435,32.7345653 C54.1501812,31.0558696 55.6555435,27.297174 54.9424276,26.3848188 Z" fill-rule="nonzero"></path></g></g></g></g></svg>