<svg data-test-id="available-on-device-ribbon-available-on-device-ribbon-supported-devices-icons-dark-iOS-IOS" width="96px" height="36px" viewBox="0 0 96 36" version="1.1" xmlns="http://www.w3.org/2000/svg"><title>iOS icon</title><desc>iOS icon</desc><defs></defs><g id="💻-Supported-Devices" stroke="none" stroke-width="1" fill="none" fill-rule="evenodd"><g id="Supported-Devices/iOS" fill="#333333" fill-rule="nonzero"><g id="Group-2"><g id="IOS-Logo.wine" transform="translate(42.050000, 10.348907)"><path d="M0.185721379,20.0749857 L3.48937457,20.0749857 L3.48937457,5.59923938 L0.185721379,5.59923938 L0.185721379,20.0749857 Z M1.83092477,3.70088401 C2.86580858,3.70088401 3.67512991,2.88147971 3.67512991,1.85727678 C3.67512991,0.819369335 2.86580858,0 1.83092477,0 C0.809321326,0 0,0.819404296 0,1.85727678 C0,2.88151467 0.809321326,3.70088401 1.83092477,3.70088401 L1.83092477,3.70088401 Z M14.488713,0.0408688293 C8.90314596,0.0408688293 5.4003212,3.96029095 5.4003212,10.2287093 C5.4003212,16.4971277 8.90280631,20.4029152 14.488713,20.4029152 C20.0610337,20.4029152 23.5638585,16.4971277 23.5638585,10.2287093 C23.5638585,3.96029095 20.0613733,0.0408688293 14.488713,0.0408688293 Z M14.488713,3.04530463 C17.8984733,3.04530463 20.0742801,5.83123728 20.0742801,10.2286394 C20.0742801,14.612337 17.8984054,17.3983396 14.488713,17.3983396 C11.0657063,17.3983396 8.90314596,14.6124069 8.90314596,10.2286394 C8.90314596,5.83130721 11.0657743,3.04530463 14.488713,3.04530463 Z M24.9574481,14.5305294 C25.1033963,18.1632754 27.9957317,20.4028453 32.4005686,20.4028453 C37.031036,20.4028453 39.95,18.053919 39.95,14.3120263 C39.95,11.3759033 38.3047966,9.72346013 34.4174185,8.80854374 L32.2149831,8.28959001 C29.8665994,7.71602798 28.8980835,6.95126695 28.8980835,5.64024805 C28.8980835,4.00147442 30.3575315,2.90895867 32.5201259,2.90895867 C34.709281,2.90895867 36.2084003,4.01514398 36.3676968,5.8587512 L39.6315429,5.8587512 C39.5519286,2.39000494 36.7657343,0.0409737108 32.5467546,0.0409737108 C28.3805906,0.0409737108 25.4218874,2.40353466 25.4218874,5.89965499 C25.4218874,8.7128918 27.0936176,10.460952 30.6226295,11.2940608 L33.1036809,11.8949619 C35.5183985,12.4821935 36.5001948,13.3015628 36.5001948,14.7218333 C36.5001948,16.360607 34.8947986,17.5350701 32.5863919,17.5350701 C30.2512886,17.5350701 28.4867996,16.3469724 28.2745175,14.5306343 L24.9576179,14.5306343 L24.9574481,14.5305294 Z" id="Shape"></path></g><g id="apple-black" transform="translate(14.000000, 5.248178)"><path d="M17.7473516,13.0976414 C17.7840258,16.8285426 21.2120209,18.070078 21.25,18.0858817 C21.2210148,18.1733962 20.7022627,19.8551455 19.4439673,21.5922738 C18.3561816,23.0941517 17.2272947,24.5904389 15.4488958,24.6214299 C13.7014394,24.6518487 13.1395356,23.6425702 11.141697,23.6425702 C9.14446414,23.6425702 8.52016286,24.5904829 6.86599981,24.6518928 C5.14939265,24.7133026 3.8421672,23.0278995 2.74543431,21.5315243 C0.504296646,18.4707167 -1.20839611,12.8824208 1.09131786,9.11022754 C2.23376543,7.23694113 4.27540815,6.05069662 6.49142836,6.02027784 C8.17709307,5.98990308 9.76811301,7.09158249 10.7986272,7.09158249 C11.828489,7.09158249 13.7619263,5.76671461 15.7945286,5.96128917 C16.6454461,5.99474543 19.0340264,6.28599097 20.5677282,8.40676566 C20.4441448,8.47913684 17.7177139,9.97850553 17.7473516,13.0976414 M14.4632109,3.93630503 C15.3745687,2.89418657 15.9879655,1.44346152 15.8206246,0 C14.5069684,0.0498762397 12.9184648,0.826941891 11.9762112,1.86848808 C11.1317712,2.79082433 10.3922279,4.26708179 10.5917694,5.68197342 C12.0559906,5.78898943 13.5518065,4.97908382 14.4632109,3.93630503" id="Shape"></path></g></g></g></g></svg>