<svg data-test-id="available-on-device-ribbon-available-on-device-ribbon-supported-devices-icons-dark-lg-LG" width="96px" height="36px" viewBox="-10 0 96 36" version="1.1" xmlns="http://www.w3.org/2000/svg"><title>LG icon</title><desc>LG icon</desc><defs></defs><g stroke="none" stroke-width="1" fill="none" fill-rule="evenodd" maxWidth="94px"><g transform="translate(-166.000000, -204.000000)" fill="#333333"><g transform="translate(154.000000, 188.000000)"><g transform="translate(12.000000, 16.000000)"><polygon points="41.4405826 5.48451653 36.9322725 5.48451653 36.9322725 24.9960004 50.7788798 24.9960004 50.7788798 21.1965759 41.4405826 21.1965759 41.4405826 5.48405666"></polygon><path d="M60.6957363,17.5581741 L64.3652482,17.5581741 L64.3652482,20.9697004 C63.6894731,21.2283758 62.3705734,21.4861314 61.1146755,21.4861314 C57.0565757,21.4861314 55.7041056,19.4236262 55.7041056,15.2388329 C55.7041056,11.2462641 56.9919643,8.89519206 61.0489145,8.89519206 C63.3043341,8.89519206 64.5908131,9.60361778 65.6533368,10.9565477 L68.4562286,8.38037051 C66.7480511,5.93433583 63.7536246,5.19302958 60.9521124,5.19302958 C54.641812,5.19302958 51.3245585,8.63766632 51.3245585,15.2059523 C51.3245585,21.7434273 54.3194449,25.2848661 60.9203815,25.2848661 C63.9472287,25.2848661 66.9099244,24.511829 68.5192304,23.3858437 L68.5192304,13.9190134 L60.6957363,13.9192434 L60.6957363,17.5581741 Z"></path><path d="M15.0929629,30.4135602 C6.75786636,30.4135602 -0.000114966849,23.6528197 -0.000114966849,15.3204823 C-0.000114966849,6.98400615 6.75786636,0.229933698 15.0929629,0.229933698 C23.4285194,0.229933698 30.1860408,6.98423609 30.1860408,15.3204823 C30.1860408,23.6528197 23.4289792,30.4135602 15.0929629,30.4135602 Z M14.492859,8.69595451 L14.492859,21.9258796 L18.6974266,21.9258796 L18.6974266,20.7458599 L15.6919632,20.7458599 L15.6919632,8.69595451 L14.492859,8.69595451 Z M10.2737825,12.3089947 C11.2749139,12.3089947 12.08589,11.4968689 12.08589,10.5005661 C12.08589,9.50150423 11.2749139,8.68960834 10.2737825,8.68960834 C9.27862949,8.68960834 8.46673361,9.50150423 8.46673361,10.5005661 C8.46673361,11.4968689 9.27862949,12.3089947 10.2737825,12.3089947 Z M15.6919402,2.69208673 C15.5394942,2.68564859 15.238511,2.68196965 15.0925031,2.68196965 C8.13103041,2.68196965 2.46408448,8.35052511 2.46408448,15.3152168 C2.46408448,18.6878843 3.77286709,21.8605095 6.15635981,24.2442321 C8.54859,26.6332433 11.7221349,27.9447851 15.0925031,27.9447851 C18.4637909,27.9447851 21.6373358,26.6332433 24.0281864,24.2442321 C26.412369,21.8605095 27.7216114,18.6878843 27.7216114,15.3152168 L27.7216114,14.7392329 L27.216907,14.7417622 L18.7054513,14.7417622 L18.7054513,15.9151139 L26.5225072,15.9151139 L26.5225072,16.0852648 C26.1205831,22.0414673 21.147807,26.7656851 15.0925031,26.7656851 C12.0359944,26.7656851 9.16228304,25.5746285 6.99745727,23.4121021 C4.83240157,21.2504954 3.64111508,18.3747146 3.64111508,15.3152168 C3.64111508,12.2564088 4.83240157,9.38039815 6.99745727,7.21787172 C9.16228304,5.05235615 12.0359944,3.86152952 15.0925031,3.86152952 C15.231383,3.86152952 15.5542099,3.86520846 15.6919402,3.8688874 L15.6910205,2.69162687 L15.6919402,2.69208673 Z"></path></g></g></g></g></svg>