<svg data-test-id="available-on-device-ribbon-available-on-device-ribbon-supported-devices-icons-dark-roku-Roku" width="96px" height="36px" viewBox="0 0 96 36" version="1.1" xmlns="http://www.w3.org/2000/svg"><title>Roku icon</title><desc>Roku icon</desc><defs></defs><g id="💻-Supported-Devices" stroke="none" stroke-width="1" fill="none" fill-rule="evenodd"><g id="Supported-Devices/Roku" fill="#333333" fill-rule="nonzero"><path d="M26.3420866,20.5432533 C26.3420866,22.3237657 24.8968607,23.7576591 23.1296761,23.7576591 L21.5366267,23.7576591 L21.5366267,17.3572979 L23.1296761,17.3572979 C24.8968607,17.3572979 26.3420866,18.7921395 26.3420866,20.5432533 M33.588787,7.78378378 L27.7409084,7.78378378 L23.0981022,14.1699199 L21.5366267,14.1699199 L21.5366267,7.79753475 L16.3828966,7.79753475 L16.3828966,26.9417179 L23.7659391,26.9417179 C28.0222036,26.9417179 31.4962951,24.0729828 31.4962951,20.5432533 C31.4962951,18.3905166 30.1644484,16.4677529 28.1374963,15.2913345 L33.588787,7.78378378" id="path3023" transform="translate(24.985842, 17.362751) scale(-1, 1) rotate(-180.000000) translate(-24.985842, -17.362751) "></path><path d="M39.4010254,23.539493 C38.0399967,23.539493 36.8822851,21.7058734 36.8822851,19.4360164 C36.8822851,17.1661595 38.0399967,15.3301691 39.4010254,15.3301691 C40.7936281,15.3301691 41.9494261,17.1661595 41.9494261,19.4360164 C41.9494261,21.7058734 40.7936281,23.539493 39.4010254,23.539493 M47.3337418,19.4360164 C47.3337418,15.0997219 43.7759314,11.6273671 39.4010254,11.6273671 C35.0275546,11.6273671 31.4960559,15.0997219 31.4960559,19.4360164 C31.4960559,23.7689918 35.0275546,27.2432432 39.4010254,27.2432432 C43.7759314,27.2432432 47.3337418,23.7689918 47.3337418,19.4360164" id="path3027" transform="translate(39.414899, 19.435305) scale(-1, 1) rotate(-180.000000) translate(-39.414899, -19.435305) "></path><path d="M59.4279529,27.22366 L53.491093,21.3401452 L53.491093,27.243101 L48.3383197,27.243101 L48.3383197,12.2408023 L53.491093,12.2408023 L53.491093,18.3263139 L59.6891555,12.2408023 L66.1747324,12.2408023 L58.2984665,20.0485032 L64.8223148,26.5124034 L64.8223148,17.6093672 C64.8223148,14.6533847 66.6158109,11.9254785 71.1323213,11.9254785 C73.2764797,11.9254785 75.244111,13.1308214 76.2004191,14.2214148 L78.5172774,12.2408023 L79.6171034,12.2408023 L79.6171034,27.22366 L74.4643301,27.22366 L74.4643301,19.4178557 L74.4643301,17.5230681 C73.8840391,16.5192479 73.0755546,15.8881262 71.8259915,15.8881262 C70.5582494,15.8881262 69.9765233,16.6330489 69.9765233,19.0157586 L69.9765233,19.6445095 L69.9765233,27.22366 L59.4279529,27.22366 Z" id="path3031" transform="translate(63.977712, 19.584290) scale(-1, 1) rotate(-180.000000) translate(-63.977712, -19.584290) "></path></g></g></svg>