<svg data-test-id="available-on-device-ribbon-available-on-device-ribbon-supported-devices-icons-dark-samsung-Samsung" width="96px" height="36px" viewBox="0 0 96 36" version="1.1" xmlns="http://www.w3.org/2000/svg"><title>Samsung icon</title><desc>Samsung icon</desc><defs></defs><g id="💻-Supported-Devices" stroke="none" stroke-width="1" fill="none" fill-rule="evenodd"><g id="Supported-Devices/Samsung" fill="#333333" fill-rule="nonzero"><g id="samsung-1"><path d="M52.6428455,17.5570703 C52.6428455,17.5570703 51.7088424,17.0465456 51.1313062,16.8490086 C51.1313062,16.8490086 49.3435799,16.1165858 48.9889104,15.7681156 C48.9889104,15.7681156 48.2921524,15.1876851 48.7001422,14.5135171 C48.7001422,14.5135171 48.8708869,14.0723687 49.6071857,14.0723687 C49.6071857,14.0723687 50.565752,14.1189726 50.565752,14.8153834 L50.565752,15.7977726 L54.0010142,15.7977726 L53.9950232,14.350933 C53.9950232,14.350933 54.259228,11.9815478 49.9486749,11.8772186 C49.9486749,11.8772186 46.5583455,11.6802111 45.5859998,13.2944011 C45.5859998,13.2944011 45.2043706,13.6545223 45.2043706,14.9085912 L45.2043706,15.8147195 C45.2043706,15.8147195 45.1654288,16.86013 45.7693256,17.5337684 C45.7693256,17.5337684 46.1108149,17.9754463 46.9519569,18.4626691 C46.9519569,18.4626691 48.6600023,19.2755896 49.6850692,19.7410991 C49.6850692,19.7410991 50.7197217,20.2632747 50.5837251,21.0942013 C50.5837251,21.0942013 50.4992515,21.9473706 49.4999461,21.9124177 C49.4999461,21.9124177 48.5863125,21.8764056 48.5863125,21.0396535 L48.5863125,20.0577939 L44.9257872,20.0577939 L44.9257872,21.4839795 C44.9257872,21.4839795 44.8233404,24.2113675 49.5269057,24.2113675 C49.5269057,24.2113675 54.0213837,24.2918652 54.2310701,21.4124848 L54.2310701,20.2510942 C54.230471,20.2510942 54.3898327,18.4865006 52.6428455,17.5570703 L52.6428455,17.5570703 Z M35.0555493,12.2166857 L33.9052696,18.5887115 L33.636272,18.5887115 L32.5375153,12.2738814 L26.7992974,12.2738814 L26.5117275,23.8131159 L29.9092461,23.8131159 L29.9499852,15.1188384 L30.2171856,15.1188384 L32.0180921,23.8115271 L35.5923464,23.8115271 L37.3710861,15.1220159 L37.6077322,15.1220159 L37.6898094,23.8131159 L41.1053012,23.8131159 L40.7374513,12.2166857 L35.0555493,12.2166857 L35.0555493,12.2166857 Z M14.8309974,12.2648784 L12.5705781,23.7998761 L16.2281078,23.7998761 L17.5671052,14.8561618 L17.8678554,14.8561618 L19.2062537,23.7998761 L22.8631843,23.7998761 L20.6033641,12.2648784 L14.8309974,12.2648784 L14.8309974,12.2648784 Z M91.5774145,17.3981933 L91.5774145,19.0997657 L92.5156113,19.0997657 L92.5156113,20.9263213 C92.5156113,21.8192099 91.6523025,21.8356272 91.6523025,21.8356272 C90.6026723,21.8356272 90.6422132,20.9872241 90.6422132,20.9872241 L90.6422132,14.6692165 C90.6422132,14.0183506 91.5738198,13.9833976 91.5738198,13.9833976 C92.467683,13.9833976 92.473674,14.7597764 92.473674,14.7597764 L92.473674,15.7204525 L95.9173237,15.7204525 C96.0299552,13.8451747 95.6069878,13.3913161 95.6069878,13.3913161 C94.7526655,11.6955692 91.5210987,11.7882475 91.5210987,11.7882475 C86.5551259,11.7882475 87.1063015,15.1564393 87.1063015,15.1564393 L87.1063015,21.2652588 C87.212942,24.4242626 92.1064233,24.1033312 92.1890996,24.1006832 C94.3656444,23.8877881 95.0228614,23.2761117 95.0228614,23.2761117 C95.6279564,22.8789193 95.7837235,22.3286754 95.7837235,22.3286754 C95.9568645,22.0082735 96,20.9872241 96,20.9872241 L96,17.3981933 L91.5774145,17.3981933 L91.5774145,17.3981933 Z M80.1626865,19.2755896 L80.0129105,19.2755896 L76.518337,12.2198632 L72.3371904,12.2198632 L72.3371904,23.8141751 L75.740101,23.8141751 L75.5364056,16.7595079 L75.688578,16.7595079 L79.3089633,23.8141751 L83.3630999,23.8141751 L83.3630999,12.218804 L79.9170539,12.218804 L80.1626865,19.2755896 L80.1626865,19.2755896 Z M64.0306138,20.9252621 C64.0306138,20.9252621 64.0797403,21.8769352 63.0816331,21.8769352 C63.0816331,21.8769352 62.032003,21.9267166 62.032003,20.9490937 L62.0212191,12.2267479 L58.2888013,12.2267479 L58.2888013,20.8797174 C58.2888013,20.8797174 57.9059739,24.1547419 63.1343543,24.1547419 C63.1343543,24.1547419 67.6779588,24.2023645 67.6779588,21.0301209 L67.6779588,12.2272775 L64.0306138,12.2272775 L64.0306138,20.9252621 L64.0306138,20.9252621 Z M7.71543947,17.5570703 C7.71543947,17.5570703 6.78263459,17.0465456 6.20449925,16.8495382 C6.20449925,16.8495382 4.41797121,16.1176449 4.06330165,15.7686452 C4.06330165,15.7686452 3.36654373,15.1871555 3.77513264,14.5145763 C3.77513264,14.5145763 3.94527817,14.0734279 4.68097785,14.0734279 C4.68097785,14.0734279 5.64014331,14.1195022 5.64014331,14.815913 L5.64014331,15.7983022 L9.0766037,15.7983022 L9.07001355,14.350933 C9.07001355,14.350933 9.33242109,11.9815478 5.02366532,11.8777481 C5.02366532,11.8777481 4.69895097,11.8592125 4.22266331,11.8803961 C4.22266331,11.8803961 1.6123673,12.0043201 0.678963312,13.27004 C0.673571376,13.2795726 0.665783025,13.2864573 0.660391089,13.2949307 C0.660391089,13.2949307 0.279360962,13.6545223 0.279360962,14.9091208 L0.279360962,15.8152491 C0.279360962,15.8152491 0.2398201,16.8606596 0.844316008,17.5342979 C0.844316008,17.5342979 1.18580527,17.9759759 2.02694725,18.4631986 C2.02694725,18.4631986 3.73439357,19.2761192 4.75946047,19.7416287 C4.75946047,19.7416287 5.79531124,20.2627452 5.65811643,21.0947309 C5.65811643,21.0947309 5.57364277,21.9479002 4.57493645,21.9129473 C4.57493645,21.9129473 3.66130289,21.8769352 3.66130289,21.0401831 L3.66130289,20.0577939 L0.000178510848,20.0577939 L0.000178510848,21.4850387 C0.000178510848,21.4850387 -0.102268268,24.2124267 4.60129702,24.2124267 C4.60129702,24.2124267 9.09457682,24.2929243 9.30606052,21.413544 L9.30606052,20.2532125 C9.30606052,20.2521534 9.46302576,18.4865006 7.71543947,17.5570703 L7.71543947,17.5570703 Z" id="Shape"></path></g></g></g></svg>