<svg xmlns="http://www.w3.org/2000/svg" viewBox="4250 -400 3000 1800" data-test-id="available-on-device-ribbon-available-on-device-ribbon-supported-devices-icons-dark-vizio-vizio" width="96px" height="36px" fill="#333333" fill-rule="nonzero"><title>Vizio icon</title><desc>vizio icon</desc><path d="M4659.57,341.17c-.26,2.72-3.21,13.95-6.34,20.38l-211,366.35c-12,20.55-41.73,33.83-75.67,33.83s-63.64-13.28-75.68-33.84L4072.14,355.16c-1.24-2.88-3.75-11.35-3.81-13.79V1.3H3902.7V328.41c0,46.25,22.1,91.68,40.66,121.68l216.38,361.5c37.5,62.72,116.5,101.68,206.16,101.68,41.61,0,81.94-8.62,116.62-24.92,37.7-17.72,67.77-44.28,87-76.8l210-353.86c23.42-39.95,44.44-79.9,44.44-129.28V1.3H4659.57Z"></path><rect x="4987.04" width="166.93" height="905.65"></rect><path d="M5375.42,146.19H6109.7c-5.58,31.63-18.33,59.7-38,83.6-20.34,24.73-47.77,44.14-79.38,56.15L5542.64,459.6c-51.33,19.74-91.53,42.58-122.93,69.82a254.21,254.21,0,0,0-68.58,94.06c-14.25,33.32-23.26,71.49-28.37,120.14-5,47.28-5.66,100-5.66,149.85v12.18h962.67V759.46H5486.14c3.26-41.7,11.29-72.15,25-95.14,14.69-24.63,37-42.11,70-55L6036.1,435.68c50.15-19.34,90.72-42.52,124-70.86a296.59,296.59,0,0,0,74.8-95.46c16.86-33.89,28.55-72.48,35.73-118,6.22-39.43,9.12-83.66,9.12-139.2V0H5375.42Z"></path><rect x="6442.91" width="166.93" height="905.65"></rect><path d="M7650.25,75.34C7597.84,26.76,7527.18,0,7451.3,0H7054.72C6899.36,0,6773,119.42,6773,266.2V639.45c0,146.78,126.39,266.2,281.75,266.2H7451.3c74.65,0,145.14-27.34,198.48-77,53.7-50,83.27-116.24,83.27-186.63V266.2C7733.05,192.61,7703.64,124.83,7650.25,75.34ZM6938.6,266.2c0-29.69,12.92-60.08,35.45-83.39s51.91-36.62,80.67-36.62H7451.3c29.22,0,58.79,13.34,81.12,36.59s35,53.57,35,83.42V639.45c0,29.85-12.76,60.25-35,83.42s-51.9,36.59-81.12,36.59H7054.72c-29.22,0-58.79-13.34-81.12-36.59s-35-53.57-35-83.42Z"></path></svg>